<?xml version="1.0" standalone="no"?>
<!DOCTYPE svg PUBLIC "-//W3C//DTD SVG 20010904//EN"
 "http://www.w3.org/TR/2001/REC-SVG-20010904/DTD/svg10.dtd">
<svg version="1.0" xmlns="http://www.w3.org/2000/svg"
 width="250.000000pt" height="250.000000pt" viewBox="0 0 250.000000 250.000000"
 preserveAspectRatio="xMidYMid meet">
<metadata>
Created by potrace 1.11, written by Peter Selinger 2001-2013
</metadata>
<g transform="translate(0.000000,250.000000) scale(0.100000,-0.100000)"
fill="#000000" stroke="none">
<path d="M1114 2245 c-551 -83 -935 -581 -870 -1130 15 -125 58 -265 109 -355
11 -19 25 -44 31 -55 38 -69 73 -112 161 -200 113 -114 274 -211 415 -251 55
-15 181 -40 194 -38 9 1 16 -1 16 -4 0 -4 41 -7 90 -7 50 0 90 2 90 5 0 3 8 6
18 6 89 4 242 49 347 102 108 54 183 108 270 197 89 89 144 166 193 267 32 65
85 208 77 208 -2 0 1 15 6 33 31 106 28 300 -7 453 l-17 70 35 120 c20 65 33
122 29 126 -4 4 -21 10 -38 14 -29 6 -32 3 -43 -31 -7 -20 -13 -42 -14 -48
-11 -62 -17 -60 -61 18 -143 250 -394 431 -679 490 -98 20 -254 25 -352 10z"/>
</g>
</svg>
